<?xml version="1.0" encoding="UTF-8"?>
<!-- Generator: visioncortex VTracer 0.6.4 -->
<svg version="1.1" xmlns="http://www.w3.org/2000/svg" width="1024" height="1024">
<path d="M0 0 C2.73 -0 5.45 -0.01 8.18 -0.01 C12.53 -0.02 16.89 -0.02 21.25 -0.01 C22.85 -0.01 24.46 -0.01 26.07 -0.01 C67.59 -0.06 67.59 -0.06 83.49 14.87 C96.35 28.56 97.84 43.75 97.77 61.62 C97.78 63.67 97.79 65.73 97.8 67.79 C97.82 73.34 97.82 78.9 97.81 84.45 C97.81 89.1 97.81 93.76 97.82 98.41 C97.84 109.39 97.83 120.37 97.82 131.35 C97.8 142.65 97.82 153.95 97.85 165.25 C97.88 174.98 97.88 184.71 97.87 194.43 C97.87 200.23 97.87 206.03 97.89 211.83 C97.91 217.28 97.9 222.74 97.88 228.2 C97.87 230.19 97.88 232.18 97.89 234.17 C97.98 249.12 96.98 263.62 86.24 275.12 C85.62 275.86 84.99 276.6 84.35 277.35 C75.78 286.83 63.89 292.55 51.09 293.31 C47.34 293.39 43.58 293.41 39.82 293.4 C38.38 293.4 36.94 293.41 35.5 293.41 C31.62 293.43 27.73 293.43 23.84 293.42 C20.58 293.42 17.32 293.43 14.07 293.43 C6.37 293.44 -1.32 293.44 -9.01 293.44 C-16.92 293.43 -24.83 293.44 -32.74 293.47 C-39.55 293.48 -46.37 293.49 -53.18 293.49 C-57.24 293.48 -61.3 293.49 -65.36 293.5 C-69.18 293.51 -73 293.51 -76.82 293.5 C-78.21 293.5 -79.61 293.5 -81 293.51 C-97.75 293.6 -110.31 289.86 -122.66 278.3 C-135.8 264.68 -136.36 249.16 -136.28 231.28 C-136.28 229.21 -136.29 227.14 -136.3 225.07 C-136.32 219.49 -136.31 213.91 -136.3 208.32 C-136.29 202.46 -136.3 196.6 -136.3 190.73 C-136.31 180.89 -136.3 171.05 -136.28 161.2 C-136.26 149.85 -136.27 138.5 -136.29 127.14 C-136.31 117.37 -136.31 107.59 -136.3 97.81 C-136.29 91.98 -136.29 86.16 -136.3 80.33 C-136.32 74.85 -136.31 69.37 -136.28 63.89 C-136.28 61.89 -136.28 59.89 -136.29 57.89 C-136.36 41.19 -134.82 27.4 -122.55 14.87 C-112.01 5.12 -101.09 1.06 -86.9 0.81 C-85.38 0.78 -85.38 0.78 -83.83 0.74 C-80.41 0.68 -76.99 0.62 -73.57 0.56 C-71.79 0.53 -71.79 0.53 -69.98 0.5 C-46.65 0.1 -23.33 0.01 0 0 Z M-105.13 35.56 C-105.6 36.12 -106.06 36.67 -106.53 37.24 C-109.5 41.8 -110.01 45.72 -110.03 51.11 C-110.04 51.8 -110.04 52.48 -110.05 53.18 C-110.06 55.43 -110.06 57.68 -110.06 59.93 C-110.06 61.5 -110.07 63.07 -110.07 64.64 C-110.08 67.93 -110.08 71.22 -110.07 74.51 C-110.07 78.71 -110.09 82.91 -110.11 87.12 C-110.12 90.36 -110.12 93.6 -110.12 96.84 C-110.12 98.39 -110.13 99.94 -110.14 101.49 C-110.15 103.66 -110.14 105.83 -110.13 108 C-110.13 109.24 -110.13 110.47 -110.13 111.74 C-109.51 117.42 -106.77 122.11 -102.76 126.12 C-94.95 130.18 -86.57 129.62 -77.99 129.67 C-76.31 129.69 -74.62 129.71 -72.93 129.73 C-68.4 129.79 -63.86 129.82 -59.33 129.85 C-56.51 129.87 -53.69 129.9 -50.87 129.92 C-25.28 130.16 0.32 130.2 25.91 129.9 C28.11 129.87 30.31 129.85 32.52 129.83 C36.59 129.8 40.66 129.74 44.73 129.67 C45.92 129.66 47.11 129.65 48.34 129.64 C55.65 129.49 60.3 128.72 65.93 123.75 C70.2 118.9 71.62 115.72 71.64 109.2 C71.65 108.52 71.66 107.84 71.67 107.14 C71.68 104.91 71.68 102.69 71.67 100.45 C71.68 98.89 71.68 97.33 71.69 95.77 C71.7 92.5 71.7 89.23 71.69 85.96 C71.68 81.79 71.7 77.63 71.72 73.46 C71.74 70.23 71.74 67.01 71.74 63.78 C71.74 62.25 71.74 60.71 71.76 59.18 C71.82 49.58 71.85 40.12 64.99 32.69 C56.61 27.92 49.35 27.69 39.87 27.72 C38.43 27.71 36.98 27.71 35.53 27.7 C31.63 27.68 27.72 27.68 23.81 27.69 C20.54 27.69 17.27 27.68 14 27.68 C6.28 27.66 -1.44 27.67 -9.16 27.68 C-17.1 27.69 -25.05 27.67 -33 27.65 C-39.84 27.63 -46.68 27.62 -53.51 27.62 C-57.59 27.63 -61.67 27.63 -65.75 27.61 C-69.58 27.59 -73.42 27.6 -77.25 27.62 C-78.66 27.62 -80.06 27.62 -81.46 27.61 C-90.65 27.54 -98.94 27.81 -105.13 35.56 Z M-102.76 159.12 C-106.29 163.98 -105.09 170.84 -105.07 176.56 C-105.09 177.79 -105.1 179.02 -105.12 180.28 C-105.12 181.47 -105.12 182.65 -105.12 183.87 C-105.13 184.95 -105.13 186.03 -105.13 187.14 C-104.7 190.63 -103.97 192.38 -101.76 195.12 C-96.27 199.18 -90.07 198.56 -83.54 198.52 C-81.77 198.53 -81.77 198.53 -79.97 198.53 C-77.48 198.53 -75 198.53 -72.51 198.51 C-68.71 198.5 -64.9 198.51 -61.1 198.53 C-58.68 198.53 -56.27 198.53 -53.85 198.52 C-52.71 198.53 -51.58 198.53 -50.4 198.54 C-49.34 198.53 -48.28 198.52 -47.19 198.51 C-46.26 198.51 -45.33 198.51 -44.37 198.5 C-40.25 197.9 -37.59 195.83 -34.47 193.18 C-31.78 188.37 -32.22 183.66 -32.32 178.25 C-32.31 177.18 -32.31 176.12 -32.3 175.03 C-32.36 167.85 -32.8 162.61 -37.59 156.97 C-42.6 154.05 -47.59 154.55 -53.29 154.59 C-55.12 154.59 -55.12 154.59 -56.99 154.58 C-59.57 154.58 -62.15 154.58 -64.73 154.6 C-68.68 154.62 -72.62 154.6 -76.57 154.58 C-79.08 154.58 -81.59 154.58 -84.1 154.59 C-85.87 154.58 -85.87 154.58 -87.67 154.57 C-93.93 154.64 -98.11 154.71 -102.76 159.12 Z M-5.61 161.5 C-7.79 166.48 -7.23 171.77 -7.2 177.12 C-7.22 178.3 -7.24 179.47 -7.26 180.69 C-7.26 181.82 -7.26 182.95 -7.26 184.12 C-7.26 185.15 -7.26 186.19 -7.26 187.25 C-6.61 190.98 -5.49 192.5 -2.76 195.12 C3.26 198.68 8.97 198.58 15.83 198.56 C16.94 198.56 18.05 198.57 19.18 198.57 C21.51 198.58 23.84 198.58 26.17 198.57 C29.73 198.56 33.28 198.59 36.84 198.62 C39.11 198.62 41.38 198.62 43.65 198.62 C44.7 198.63 45.76 198.64 46.85 198.65 C53.2 198.59 57.09 197.91 62.24 194.12 C66.1 188.95 65.69 183.37 65.62 177.19 C65.63 176.22 65.64 175.26 65.65 174.27 C65.62 167.69 64.97 162.53 60.74 157.25 C57.69 154.96 54.7 154.98 51.04 154.95 C49.98 154.93 48.92 154.92 47.82 154.91 C46.67 154.9 45.53 154.89 44.35 154.88 C43.17 154.88 41.99 154.87 40.77 154.86 C38.27 154.85 35.77 154.84 33.27 154.83 C29.45 154.81 25.64 154.77 21.82 154.72 C19.39 154.71 16.96 154.7 14.53 154.7 C13.39 154.68 12.25 154.66 11.08 154.64 C3.68 154.66 -0.83 155.36 -5.61 161.5 Z M-102.76 225.12 C-106.07 230.54 -105.09 236.92 -105.07 243.06 C-105.09 244.34 -105.1 245.61 -105.12 246.93 C-105.12 248.15 -105.12 249.38 -105.12 250.65 C-105.13 251.77 -105.13 252.89 -105.13 254.05 C-104.7 257.63 -104.08 259.35 -101.76 262.12 C-95.78 265.73 -90.01 265.56 -83.17 265.52 C-82.06 265.52 -80.95 265.53 -79.82 265.53 C-77.49 265.53 -75.16 265.53 -72.83 265.51 C-69.27 265.5 -65.72 265.51 -62.16 265.53 C-59.89 265.53 -57.62 265.53 -55.35 265.52 C-54.3 265.53 -53.24 265.53 -52.15 265.54 C-45.02 265.47 -39.6 264.97 -34.35 259.71 C-31.99 254.39 -32.18 249.45 -32.26 243.69 C-32.24 242.58 -32.23 241.47 -32.21 240.33 C-32.24 233.77 -32.57 229.31 -36.76 224.12 C-42.33 220.31 -47.93 220.67 -54.44 220.69 C-56.13 220.68 -56.13 220.68 -57.85 220.67 C-60.23 220.67 -62.61 220.67 -64.99 220.68 C-68.61 220.69 -72.24 220.66 -75.86 220.62 C-78.18 220.62 -80.5 220.62 -82.81 220.63 C-83.89 220.62 -84.97 220.6 -86.08 220.59 C-92.24 220.65 -97.82 221.08 -102.76 225.12 Z M-5.16 226.99 C-7.8 232.37 -7.38 238.33 -7.32 244.19 C-7.35 245.34 -7.37 246.5 -7.39 247.7 C-7.5 254.67 -7.5 254.67 -4.6 260.81 C1.52 265.8 8.01 265.43 15.55 265.42 C17.18 265.43 17.18 265.43 18.85 265.44 C21.14 265.44 23.43 265.44 25.73 265.44 C29.23 265.44 32.73 265.46 36.23 265.48 C38.46 265.49 40.7 265.49 42.93 265.49 C44.49 265.5 44.49 265.5 46.09 265.51 C52.83 265.47 57.25 264.63 62.55 260.19 C66.32 255.58 65.46 249.47 65.49 243.81 C65.51 242.89 65.53 241.96 65.55 241.01 C65.59 235.25 65.03 231.2 62.24 226.12 C58.14 222.23 54.99 221.01 49.42 220.96 C48.44 220.95 47.47 220.94 46.46 220.93 C45.4 220.93 44.34 220.92 43.26 220.92 C42.17 220.91 41.08 220.91 39.96 220.9 C37.65 220.89 35.34 220.89 33.04 220.88 C29.52 220.87 26 220.84 22.48 220.81 C20.24 220.8 18 220.8 15.76 220.79 C14.71 220.78 13.66 220.77 12.58 220.76 C5.34 220.78 -0.26 221.13 -5.16 226.99 Z " fill="#143E87" transform="translate(312.7590980529785,346.8770637512207)"/>
<path d="M0 0 C4.41 3.06 8.7 6.42 12 10.69 C12 11.35 12 12.01 12 12.69 C12.66 12.69 13.32 12.69 14 12.69 C21.42 25.74 22.6 39.2 18.97 53.58 C15.39 65.04 7.51 74.01 -3 79.69 C-15.95 85.87 -29.47 85.77 -43 81.69 C-56.67 74.94 -64.27 65.65 -69.12 51.38 C-72.04 39.09 -70.72 25.97 -64.46 14.98 C-56.73 3.19 -46.26 -3.5 -32.64 -6.8 C-21.45 -8.96 -9.64 -5.89 0 0 Z M-41.31 22.06 C-46.49 30.12 -47.03 37.12 -46 46.69 C-44.06 53.84 -40.43 57.81 -34.18 61.63 C-29.8 63.75 -25.85 64.16 -21 63.69 C-13.04 60.73 -8.63 57.08 -4.75 49.56 C-1.55 41.85 -2.2 35.02 -5.12 27.31 C-7.81 21.45 -10.42 18.37 -16.32 15.6 C-26.23 12.23 -34.28 14.84 -41.31 22.06 Z " fill="#254C90" transform="translate(717,400.3125)"/>
<path d="M0 0 C5.03 3.9 5.03 3.9 7.28 6.03 C7.28 6.69 7.28 7.35 7.28 8.03 C7.94 8.03 8.6 8.03 9.28 8.03 C13.94 14.42 18.3 21.9 18.28 30.03 C15.14 33.17 11.62 32.44 7.34 32.47 C6.11 32.52 6.11 32.52 4.85 32.57 C2.55 32.59 0.52 32.54 -1.72 32.03 C-3.61 29.79 -3.61 29.79 -4.72 27.03 C-8.89 20.1 -12.29 15.64 -20.16 12.78 C-28.07 11.11 -33.59 12.5 -40.72 16.03 C-43.59 17.84 -43.59 17.84 -45.72 20.03 C-46.4 20.69 -47.08 21.35 -47.78 22.03 C-54.63 32.64 -55.46 45.73 -53.18 57.94 C-52.51 60.09 -51.73 62.02 -50.72 64.03 C-50.43 64.66 -50.14 65.29 -49.84 65.94 C-46.78 71.97 -42.66 75.5 -36.47 77.84 C-28.34 80.21 -21.06 79.55 -13.21 76.43 C-7.45 73.19 -5.05 67.96 -2.72 62.03 C0.05 61.11 1.66 60.91 4.51 60.93 C5.72 60.94 5.72 60.94 6.94 60.94 C8.19 60.96 8.19 60.96 9.47 60.97 C10.31 60.97 11.16 60.98 12.03 60.98 C14.11 60.99 16.2 61.01 18.28 61.03 C17.83 73.15 13.09 81.74 4.28 90.03 C-6.51 98.81 -19.15 101.02 -32.81 99.85 C-40.95 98.82 -47.99 96.73 -54.72 92.03 C-55.47 91.55 -56.21 91.07 -56.98 90.57 C-67.96 82.91 -74.28 70.54 -76.97 57.66 C-79.42 41.76 -76.46 25.67 -67.72 12.03 C-51.9 -8.55 -22.05 -15.96 0 0 Z " fill="#1E458C" transform="translate(524.71875,520.96875)"/>
<path d="M0 0 C7.37 5.07 12 11.58 15 20 C16.09 27.39 16.13 34.67 16.1 42.13 C16.1 43.36 16.09 44.59 16.09 45.86 C16.09 49.76 16.08 53.66 16.06 57.56 C16.06 60.22 16.05 62.88 16.05 65.53 C16.04 72.02 16.02 78.51 16 85 C13 86 11.03 86.12 7.89 86.1 C6.91 86.09 5.93 86.09 4.92 86.09 C3.89 86.08 2.87 86.07 1.81 86.06 C0.78 86.06 -0.26 86.05 -1.33 86.05 C-3.88 86.04 -6.44 86.02 -9 86 C-9.01 84.93 -9.01 84.93 -9.01 83.84 C-9.05 77.1 -9.11 70.36 -9.18 63.62 C-9.22 60.16 -9.26 56.7 -9.27 53.23 C-9.29 49.25 -9.34 45.26 -9.39 41.27 C-9.39 40.04 -9.39 38.8 -9.39 37.52 C-9.52 28.95 -9.52 28.95 -14 22 C-19.9 18.67 -27.14 19.4 -33.56 20.75 C-36.4 22.21 -36.95 23.04 -38 26 C-38.34 26.59 -38.68 27.18 -39.03 27.79 C-40.22 30.49 -40.28 32.55 -40.32 35.5 C-40.34 36.6 -40.36 37.7 -40.38 38.84 C-40.4 40.61 -40.4 40.61 -40.41 42.42 C-40.43 43.64 -40.45 44.85 -40.47 46.1 C-40.53 49.99 -40.58 53.87 -40.62 57.75 C-40.66 60.38 -40.7 63.01 -40.74 65.64 C-40.84 72.1 -40.92 78.55 -41 85 C-46 86 -46 86 -65 85 C-65 56.62 -65 28.24 -65 -1 C-58.07 -1 -51.14 -1 -44 -1 C-43.34 0.98 -42.68 2.96 -42 5 C-38.88 3.5 -35.93 1.79 -32.98 0 C-23.28 -4.91 -9.77 -4.89 0 0 Z " fill="#153D86" transform="translate(567,397)"/>
<path d="M0 0 C0.5 8.42 0.5 8.42 1 17 C-0.91 17.06 -0.91 17.06 -2.87 17.11 C-4.54 17.18 -6.21 17.25 -7.88 17.31 C-8.72 17.34 -9.56 17.36 -10.43 17.38 C-11.63 17.43 -11.63 17.43 -12.87 17.49 C-13.61 17.51 -14.35 17.54 -15.12 17.57 C-17.41 17.87 -17.41 17.87 -19 21 C-19.46 23.97 -19.46 23.97 -19.62 27.19 C-19.7 28.27 -19.77 29.36 -19.85 30.48 C-19.9 31.31 -19.95 32.14 -20 33 C-18.89 32.98 -17.78 32.95 -16.64 32.93 C-15.18 32.91 -13.71 32.89 -12.25 32.88 C-11.52 32.86 -10.79 32.84 -10.04 32.82 C-6.2 32.79 -3.25 32.83 0 35 C0.22 37.79 0.43 40.58 0.62 43.38 C0.69 44.17 0.75 44.96 0.82 45.78 C0.96 47.85 0.99 49.93 1 52 C-2.02 55.02 -5.56 54.47 -9.62 54.62 C-10.43 54.66 -11.23 54.7 -12.05 54.74 C-14.04 54.84 -16.02 54.92 -18 55 C-18.01 55.81 -18.02 56.62 -18.03 57.46 C-18.13 65.1 -18.23 72.74 -18.34 80.37 C-18.39 84.3 -18.45 88.23 -18.5 92.15 C-18.54 95.94 -18.6 99.73 -18.65 103.51 C-18.67 104.96 -18.69 106.41 -18.71 107.86 C-18.73 109.88 -18.76 111.9 -18.79 113.92 C-18.81 115.07 -18.83 116.22 -18.84 117.41 C-19 120 -19 120 -20 121 C-21.54 121.1 -23.08 121.13 -24.62 121.13 C-26.02 121.13 -26.02 121.13 -27.46 121.14 C-28.93 121.13 -28.93 121.13 -30.44 121.12 C-31.91 121.13 -31.91 121.13 -33.41 121.14 C-34.34 121.14 -35.28 121.13 -36.25 121.13 C-37.54 121.13 -37.54 121.13 -38.86 121.13 C-41 121 -41 121 -43 120 C-43 98.55 -43 77.1 -43 55 C-47.29 54.67 -51.58 54.34 -56 54 C-57 53 -57 53 -57.11 51.14 C-57.11 50.35 -57.1 49.56 -57.1 48.75 C-57.09 47.89 -57.09 47.04 -57.09 46.16 C-57.08 45.26 -57.07 44.36 -57.06 43.44 C-57.06 42.54 -57.05 41.63 -57.05 40.71 C-57.04 38.47 -57.02 36.24 -57 34 C-54.24 32.62 -51.95 32.9 -48.88 32.94 C-47.78 32.95 -46.68 32.96 -45.55 32.96 C-44.71 32.98 -43.87 32.99 -43 33 C-43.05 32.11 -43.09 31.21 -43.14 30.29 C-43.42 20.83 -42.24 14.21 -37.25 6.19 C-27.63 -3.16 -12.39 -6.19 0 0 Z " fill="#0B3682" transform="translate(646,362)"/>
<path d="M0 0 C0.83 0.68 1.66 1.36 2.51 2.06 C8.82 9.89 9.45 18.97 9.27 28.67 C9.26 29.83 9.25 30.99 9.25 32.19 C9.23 35.85 9.18 39.52 9.12 43.19 C9.1 45.69 9.09 48.19 9.07 50.7 C9.03 56.8 8.96 62.9 8.88 69 C5.58 69.09 2.29 69.14 -1 69.19 C-1.94 69.21 -2.87 69.24 -3.84 69.26 C-4.74 69.27 -5.63 69.28 -6.55 69.29 C-7.38 69.31 -8.21 69.32 -9.06 69.34 C-9.74 69.23 -10.42 69.12 -11.12 69 C-11.78 68.01 -12.45 67.02 -13.12 66 C-17.06 66.57 -17.06 66.57 -20.12 69 C-28.75 71.84 -37.88 71.56 -46.25 67.99 C-53.03 64.42 -56.18 60.19 -58.46 52.87 C-59.96 46.39 -60.08 41.22 -57.06 35.19 C-52.56 28.04 -46.17 24.93 -38.12 23 C-33.94 22.53 -29.77 22.4 -25.56 22.31 C-23.91 22.26 -23.91 22.26 -22.22 22.21 C-19.52 22.13 -16.82 22.06 -14.12 22 C-13.09 18.71 -13.09 18.71 -14.31 15.44 C-16.14 12.98 -17.54 11.6 -20.12 10 C-22.58 9.6 -22.58 9.6 -25.12 9.75 C-25.97 9.77 -26.82 9.78 -27.69 9.8 C-29.97 9.99 -31.96 10.26 -34.12 11 C-35.25 12.83 -35.25 12.83 -36.12 15 C-37.25 17.11 -37.25 17.11 -39.12 19 C-42.38 19.5 -42.38 19.5 -46.12 19.44 C-47.36 19.44 -48.6 19.43 -49.88 19.43 C-53.12 19 -53.12 19 -55.1 17.74 C-56.48 15.39 -56.21 14.31 -55.56 11.69 C-53.41 3.72 -48.91 -0.66 -42.12 -5 C-28.79 -12.3 -11.35 -9.68 0 0 Z M-36.12 39 C-36.74 39.41 -37.36 39.83 -38 40.25 C-39.42 42.13 -39.42 42.13 -39.19 45.38 C-38.13 48.98 -37.13 50.89 -34.07 53.12 C-29.06 55.39 -23.8 54.56 -18.75 52.88 C-15.5 50.55 -13.91 48.58 -12.12 45 C-11.62 41.33 -11.62 41.33 -12.12 38 C-14.72 35.41 -16.56 35.71 -20.1 35.68 C-20.87 35.68 -21.64 35.68 -22.44 35.69 C-23.58 35.66 -23.58 35.66 -24.74 35.64 C-29.4 35.63 -32.28 36.11 -36.12 39 Z " fill="#0F3782" transform="translate(818.125,550)"/>
<path d="M0 0 C8.97 6.63 13.89 14.55 16.48 25.35 C16.77 28.15 16.81 30.92 16.79 33.73 C16.79 34.85 16.79 34.85 16.78 36 C16.56 46.33 12.93 54.16 6.23 61.98 C-2.54 69.55 -12.46 74.28 -24.38 73.62 C-36.03 72.14 -44.73 68.94 -52.65 59.92 C-59.47 50.77 -62.74 39.77 -61.52 28.35 C-58.36 14.34 -52.41 4.89 -40.32 -3.11 C-28.33 -9.03 -10.92 -7.14 0 0 Z M-37.96 20.48 C-41.6 27.19 -41.72 35.47 -39.91 42.84 C-37.6 48.07 -33.75 52.03 -28.52 54.35 C-22.91 55.31 -18.25 55.17 -13.08 52.73 C-6.93 47.02 -4 42.48 -3.21 34.04 C-3.79 27.2 -5.3 20.14 -10.52 15.35 C-20.6 9.5 -30.79 11.29 -37.96 20.48 Z " fill="#184088" transform="translate(688.51953125,547.6484375)"/>
<path d="M0 0 C0.79 0.05 1.58 0.11 2.39 0.16 C8.22 0.59 8.22 0.59 9.38 1.75 C9.47 4.09 9.5 6.41 9.49 8.75 C9.49 9.48 9.49 10.21 9.49 10.97 C9.49 13.39 9.48 15.82 9.47 18.25 C9.47 19.93 9.47 21.61 9.47 23.29 C9.46 27.72 9.45 32.16 9.44 36.59 C9.43 41.1 9.43 45.62 9.42 50.14 C9.41 59.01 9.4 67.88 9.38 76.75 C3.11 76.75 -3.16 76.75 -9.62 76.75 C-10.62 74.77 -11.61 72.79 -12.62 70.75 C-13.12 71.35 -13.62 71.95 -14.12 72.56 C-21.27 78.81 -29.61 78.33 -38.62 77.75 C-45.85 76.7 -50.38 72.4 -55.1 67.09 C-62.18 56.2 -61.23 40.25 -61.09 27.83 C-61.06 24.83 -61.07 21.83 -61.08 18.82 C-61.08 16.91 -61.07 14.99 -61.06 13.07 C-61.06 12.18 -61.06 11.28 -61.07 10.36 C-61.05 9.54 -61.04 8.71 -61.03 7.86 C-61.02 7.14 -61.02 6.41 -61.01 5.67 C-60.51 3.2 -59.58 2.29 -57.62 0.75 C-55.63 0.41 -55.63 0.41 -53.39 0.46 C-52.59 0.47 -51.79 0.48 -50.96 0.49 C-50.13 0.51 -49.3 0.54 -48.44 0.56 C-47.17 0.58 -47.17 0.58 -45.88 0.6 C-43.79 0.64 -41.71 0.69 -39.62 0.75 C-38.42 5.43 -38.53 9.92 -38.6 14.71 C-38.61 16.48 -38.62 18.25 -38.63 20.02 C-38.66 22.79 -38.69 25.56 -38.72 28.33 C-38.75 31.02 -38.77 33.71 -38.79 36.39 C-38.8 37.21 -38.81 38.03 -38.83 38.87 C-38.85 45.02 -38.69 51.31 -34.56 56.19 C-29.91 58.66 -25.52 59.56 -20.37 58.12 C-15.41 55.94 -13.65 53.9 -11.62 48.75 C-11.26 45.23 -11.35 41.74 -11.44 38.21 C-11.45 37.2 -11.46 36.2 -11.47 35.16 C-11.51 31.96 -11.56 28.76 -11.62 25.56 C-11.7 21.34 -11.76 17.12 -11.81 12.89 C-11.84 11.92 -11.86 10.95 -11.89 9.95 C-11.9 8.6 -11.9 8.6 -11.92 7.22 C-11.93 6.43 -11.95 5.63 -11.97 4.82 C-11.62 2.75 -11.62 2.75 -10.36 0.98 C-7.29 -1.2 -3.58 -0.31 0 0 Z " fill="#083380" transform="translate(610.625,542.25)"/>
<path d="M0 0 C4.75 3.81 7.19 8.2 8.08 14.2 C8.12 15.38 8.16 16.55 8.2 17.77 C5.69 20.28 -0.62 19.88 -4.11 20.04 C-7.8 19.77 -7.8 19.77 -10.02 18.3 C-11.55 16.39 -11.55 16.39 -12.72 14.43 C-13.77 12.43 -13.77 12.43 -16.8 11.77 C-18.46 11.65 -20.13 11.59 -21.8 11.58 C-22.66 11.56 -23.53 11.55 -24.42 11.54 C-27.06 11.6 -27.06 11.6 -29.8 13.77 C-30.3 16.22 -30.3 16.22 -29.8 18.77 C-27.5 21.76 -25.16 22.46 -21.57 23.38 C-20.54 23.66 -19.51 23.94 -18.44 24.22 C-16.29 24.79 -14.13 25.34 -11.97 25.9 C-3.89 28.1 4.08 30.94 8.77 38.33 C11.35 44.53 11.38 51.97 9.4 58.34 C8.39 60.52 8.39 60.52 6.2 63.77 C5.21 64.1 4.22 64.43 3.2 64.77 C2.71 66.25 2.71 66.25 2.2 67.77 C-7.52 73.82 -18.66 74.78 -29.8 72.77 C-36.68 71.01 -43.39 68.59 -47.8 62.77 C-50.56 57.32 -52.46 52.81 -50.8 46.77 C-35.28 45.53 -35.28 45.53 -31.73 48.48 C-30.55 50.64 -30.55 50.64 -29.62 52.85 C-28.91 55.01 -28.91 55.01 -26.42 56.27 C-21.66 57.17 -18.03 57.2 -13.42 55.58 C-10.64 54 -10.64 54 -9.73 51.33 C-9.81 48.09 -10.62 47.12 -12.8 44.77 C-14.9 43.87 -14.9 43.87 -17.3 43.49 C-18.18 43.31 -19.06 43.13 -19.97 42.94 C-20.9 42.76 -21.84 42.58 -22.8 42.39 C-32.86 40.2 -43.17 37.52 -49.77 28.95 C-52.45 23.23 -52.57 15.87 -51.11 9.77 C-48.51 3.82 -44.46 -0.18 -38.8 -3.23 C-25.82 -8.23 -11.78 -7.63 0 0 Z " fill="#143C85" transform="translate(885.796875,547.234375)"/>
<path d="M0 0 C8.58 0 17.16 0 26 0 C26 38.94 26 77.88 26 118 C17.75 118 9.5 118 1 118 C-1 116 -1 116 -1.25 114.09 C-1.25 113.31 -1.25 112.52 -1.25 111.71 C-1.25 110.81 -1.26 109.91 -1.26 108.99 C-1.25 108 -1.25 107.01 -1.24 105.99 C-1.24 104.95 -1.25 103.9 -1.25 102.83 C-1.25 99.37 -1.24 95.92 -1.23 92.46 C-1.23 90.06 -1.23 87.66 -1.23 85.26 C-1.23 80.22 -1.22 75.18 -1.21 70.15 C-1.19 63.7 -1.18 57.25 -1.19 50.8 C-1.19 45.84 -1.18 40.88 -1.17 35.92 C-1.17 33.54 -1.17 31.16 -1.17 28.79 C-1.16 25.45 -1.16 22.12 -1.15 18.79 C-1.15 17.81 -1.15 16.83 -1.15 15.83 C-1.14 14.45 -1.14 14.45 -1.13 13.05 C-1.13 12.26 -1.13 11.48 -1.13 10.67 C-0.96 7.09 -0.44 3.55 0 0 Z " fill="#08327F" transform="translate(460,365)"/>
<path d="M0 0 C0.8 0 1.6 0.01 2.42 0.01 C3.61 0.01 3.61 0.01 4.84 0 C10.79 0.01 10.79 0.01 11.92 1.14 C12 2.7 12.02 4.26 12.02 5.83 C12.01 6.77 12.01 7.72 12.01 8.69 C12 9.68 11.99 10.68 11.98 11.7 C11.98 12.7 11.97 13.69 11.97 14.72 C11.95 17.19 11.94 19.66 11.92 22.14 C12.69 21.98 13.46 21.82 14.26 21.65 C16.89 21.14 19.36 20.9 22.04 20.82 C22.89 20.79 23.74 20.75 24.61 20.71 C26.92 21.14 26.92 21.14 28.71 22.77 C30.26 25.81 30.22 27.99 30.11 31.39 C30.06 33 30.06 33 30.02 34.65 C29.99 35.47 29.95 36.29 29.92 37.14 C25.99 38.99 22.93 39.36 18.61 39.26 C17.54 39.24 16.47 39.23 15.37 39.21 C14.15 39.17 14.15 39.17 12.92 39.14 C12.89 44.19 12.88 49.24 12.86 54.3 C12.86 56.02 12.85 57.74 12.84 59.45 C12.83 61.93 12.82 64.4 12.82 66.87 C12.82 67.64 12.81 68.4 12.8 69.19 C12.8 72.69 12.98 75.78 13.92 79.14 C19.86 79.3 19.86 79.3 25.73 78.51 C28.45 78.05 29.63 78.69 31.92 80.14 C31.42 81.62 31.42 81.62 30.92 83.14 C30.69 85.53 30.51 87.93 30.36 90.32 C30.27 91.6 30.19 92.87 30.1 94.18 C30.01 95.64 30.01 95.64 29.92 97.14 C26.73 97.2 23.54 97.23 20.36 97.26 C19.46 97.28 18.56 97.3 17.64 97.31 C10.53 97.36 3.64 96.81 -2.08 92.14 C-6.62 85.88 -7.81 80.5 -7.75 72.89 C-7.77 71.95 -7.78 71.01 -7.79 70.04 C-7.83 67.07 -7.83 64.11 -7.83 61.14 C-7.85 58.14 -7.88 55.14 -7.91 52.15 C-7.93 50.29 -7.94 48.43 -7.94 46.58 C-7.55 42.54 -7.55 42.54 -9.08 39.14 C-10.76 38.9 -12.45 38.72 -14.14 38.57 C-15.77 38.43 -17.4 38.29 -19.08 38.14 C-19.08 32.86 -19.08 27.58 -19.08 22.14 C-17.1 21.81 -15.12 21.48 -13.08 21.14 C-11.41 20.81 -9.75 20.48 -8.08 20.14 C-8.06 19.57 -8.03 19 -8.01 18.41 C-7.89 15.84 -7.77 13.27 -7.64 10.7 C-7.61 9.8 -7.57 8.9 -7.53 7.98 C-7.48 7.12 -7.44 6.27 -7.4 5.39 C-7.34 4.2 -7.34 4.2 -7.29 2.99 C-6.82 -1.21 -3.52 0.01 0 0 Z " fill="#093380" transform="translate(725.08203125,521.86328125)"/>
<path d="M0 0 C2 2 2 2 2.62 4.88 C4.39 8.89 6.12 9.31 9.97 11.02 C13.86 12.9 16.3 15.33 17.97 19.32 C18.72 21.53 19.4 23.74 20 26 C18.31 28.07 17.38 28.92 14.73 29.47 C10.23 29.52 6.98 29.53 3.38 26.62 C1 24 1 24 1 22 C-5.03 21.52 -5.03 21.52 -10.56 23.5 C-11.04 24 -11.51 24.49 -12 25 C-11.88 27.45 -11.88 27.45 -11 30 C-8.89 31.31 -8.89 31.31 -6.19 32 C-1.84 33.39 2.36 34.91 6.56 36.69 C8.05 37.31 8.05 37.31 9.57 37.95 C11.06 38.59 12.54 39.27 14 40 C14 40.66 14 41.32 14 42 C14.99 42.33 15.98 42.66 17 43 C19.96 48.27 20.91 53 20 59 C18.1 65.18 14.37 69.49 9 73 C5.56 74.38 5.56 74.38 3 75 C2.67 77.64 2.34 80.28 2 83 C-1.01 84 -3.04 84.1 -6.19 84.06 C-7.54 84.05 -7.54 84.05 -8.92 84.04 C-9.61 84.02 -10.29 84.01 -11 84 C-11.18 83.41 -11.37 82.82 -11.56 82.21 C-13.79 76.12 -15.98 74.07 -21.74 71.3 C-25.61 69.07 -28 65.94 -30 62 C-30.71 59.23 -30.9 56.88 -31 54 C-26.72 51.6 -22.82 50.99 -18 52 C-15.61 53.8 -14.62 55.39 -13 58 C-13 58.66 -13 59.32 -13 60 C-9.27 61.19 -5.89 61.41 -2 61 C0.94 58.65 0.94 58.65 3 56 C1.53 52.11 -0.37 50.89 -4 49 C-5.92 48.48 -7.86 48.02 -9.81 47.62 C-17.51 45.81 -23.62 42.83 -28 36 C-30.24 30.58 -29.5 24.61 -27.38 19.31 C-24.71 13.86 -21.4 11.01 -15.75 8.62 C-12.62 7.17 -12.62 7.17 -11.62 3.31 C-11.32 1.67 -11.32 1.67 -11 0 C-3.28 -1.34 -3.28 -1.34 0 0 Z " fill="#1A4FC1" transform="translate(300,383)"/>
<path d="M0 0 C8.58 0 17.16 0 26 0 C26 38.94 26 77.88 26 118 C17.75 118 9.5 118 1 118 C-1 116 -1 116 -1.25 114.09 C-1.25 113.31 -1.25 112.52 -1.25 111.71 C-1.25 110.81 -1.26 109.91 -1.26 108.99 C-1.25 108 -1.25 107.01 -1.24 105.99 C-1.24 104.95 -1.25 103.9 -1.25 102.83 C-1.25 99.37 -1.24 95.92 -1.23 92.46 C-1.23 90.06 -1.23 87.66 -1.23 85.26 C-1.23 80.22 -1.22 75.18 -1.21 70.15 C-1.19 63.7 -1.18 57.25 -1.19 50.8 C-1.19 45.84 -1.18 40.88 -1.17 35.92 C-1.17 33.54 -1.17 31.16 -1.17 28.79 C-1.16 25.45 -1.16 22.12 -1.15 18.79 C-1.15 17.81 -1.15 16.83 -1.15 15.83 C-1.14 14.45 -1.14 14.45 -1.13 13.05 C-1.13 12.26 -1.13 11.48 -1.13 10.67 C-0.96 7.09 -0.44 3.55 0 0 Z M2 2 C2 39.62 2 77.24 2 116 C9.59 116 17.18 116 25 116 C25 78.38 25 40.76 25 2 C17.41 2 9.82 2 2 2 Z " fill="#E0E7F3" transform="translate(460,365)"/>
<path d="M0 0 C0.79 0.05 1.58 0.11 2.39 0.16 C8.22 0.59 8.22 0.59 9.38 1.75 C9.47 4.09 9.5 6.41 9.49 8.75 C9.49 9.48 9.49 10.21 9.49 10.97 C9.49 13.39 9.48 15.82 9.47 18.25 C9.47 19.93 9.47 21.61 9.47 23.29 C9.46 27.72 9.45 32.16 9.44 36.59 C9.43 41.1 9.43 45.62 9.42 50.14 C9.41 59.01 9.4 67.88 9.38 76.75 C3.11 76.75 -3.16 76.75 -9.62 76.75 C-9.62 76.42 -9.62 76.09 -9.62 75.75 C-3.68 75.75 2.25 75.75 8.38 75.75 C8.38 51.66 8.38 27.57 8.38 2.75 C2.43 2.75 -3.5 2.75 -9.62 2.75 C-9.61 4.14 -9.59 5.53 -9.58 6.97 C-9.52 12.15 -9.49 17.32 -9.46 22.5 C-9.45 24.74 -9.42 26.98 -9.4 29.22 C-9.36 32.44 -9.35 35.66 -9.33 38.88 C-9.32 39.88 -9.3 40.88 -9.29 41.9 C-9.28 47.28 -9.55 51.13 -12.62 55.75 C-17.36 60.13 -21.07 61.06 -27.34 60.96 C-31.97 60.53 -34.76 58.63 -37.94 55.38 C-40.47 51.43 -40.75 47.67 -40.74 43.05 C-40.74 42.15 -40.74 41.25 -40.74 40.32 C-40.73 39.36 -40.73 38.41 -40.72 37.42 C-40.72 36.43 -40.72 35.43 -40.72 34.41 C-40.71 31.25 -40.7 28.1 -40.69 24.94 C-40.68 22.79 -40.68 20.65 -40.67 18.5 C-40.66 13.25 -40.65 8 -40.62 2.75 C-46.24 2.75 -51.85 2.75 -57.62 2.75 C-57.56 10.13 -57.47 17.52 -57.36 24.9 C-57.33 27.41 -57.3 29.92 -57.28 32.43 C-57.24 36.04 -57.19 39.66 -57.14 43.28 C-57.13 44.39 -57.12 45.5 -57.12 46.65 C-56.94 56.14 -55.58 63.95 -48.62 70.75 C-41.28 75.9 -34.4 76.41 -25.62 75.75 C-22.74 75 -20.36 73.99 -17.62 72.75 C-16.63 72.42 -15.64 72.09 -14.62 71.75 C-14.62 72.41 -14.62 73.07 -14.62 73.75 C-23.79 78.48 -32.41 78.65 -42.5 77.19 C-48.28 74.53 -53.16 70.08 -56.62 64.75 C-60.84 52.68 -61.23 40.51 -61.09 27.83 C-61.06 24.83 -61.07 21.83 -61.08 18.82 C-61.08 16.91 -61.07 14.99 -61.06 13.07 C-61.06 12.18 -61.06 11.28 -61.07 10.36 C-61.05 9.54 -61.04 8.71 -61.03 7.86 C-61.02 7.14 -61.02 6.41 -61.01 5.67 C-60.51 3.2 -59.58 2.29 -57.62 0.75 C-55.63 0.41 -55.63 0.41 -53.39 0.46 C-52.59 0.47 -51.79 0.48 -50.96 0.49 C-50.13 0.51 -49.3 0.54 -48.44 0.56 C-47.17 0.58 -47.17 0.58 -45.88 0.6 C-43.79 0.64 -41.71 0.69 -39.62 0.75 C-38.42 5.43 -38.53 9.92 -38.6 14.71 C-38.61 16.48 -38.62 18.25 -38.63 20.02 C-38.66 22.79 -38.69 25.56 -38.72 28.33 C-38.75 31.02 -38.77 33.71 -38.79 36.39 C-38.8 37.21 -38.81 38.03 -38.83 38.87 C-38.85 45.02 -38.69 51.31 -34.56 56.19 C-29.91 58.66 -25.52 59.56 -20.37 58.12 C-15.41 55.94 -13.65 53.9 -11.62 48.75 C-11.26 45.23 -11.35 41.74 -11.44 38.21 C-11.45 37.2 -11.46 36.2 -11.47 35.16 C-11.51 31.96 -11.56 28.76 -11.62 25.56 C-11.7 21.34 -11.76 17.12 -11.81 12.89 C-11.84 11.92 -11.86 10.95 -11.89 9.95 C-11.9 8.6 -11.9 8.6 -11.92 7.22 C-11.93 6.43 -11.95 5.63 -11.97 4.82 C-11.62 2.75 -11.62 2.75 -10.36 0.98 C-7.29 -1.2 -3.58 -0.31 0 0 Z " fill="#E9EEF6" transform="translate(610.625,542.25)"/>
<path d="M0 0 C4.41 3.82 5.8 7.49 6.27 13.28 C6.28 14.47 6.28 15.65 6.29 16.87 C6.3 17.53 6.3 18.19 6.31 18.87 C6.33 21.03 6.33 23.2 6.34 25.36 C6.34 26.88 6.35 28.4 6.36 29.91 C6.37 33.09 6.37 36.26 6.37 39.44 C6.37 43.49 6.4 47.53 6.43 51.58 C6.45 54.71 6.46 57.85 6.46 60.98 C6.46 62.47 6.47 63.96 6.48 65.45 C6.57 74.6 6.53 83.02 0.07 90.12 C-0.57 90.56 -1.21 90.99 -1.88 91.44 C-2.51 91.89 -3.15 92.34 -3.8 92.81 C-8.58 95.4 -12.94 96.25 -18.33 96.26 C-19.58 96.27 -20.83 96.27 -22.12 96.28 C-23.5 96.28 -24.87 96.28 -26.25 96.27 C-27.71 96.28 -29.16 96.28 -30.62 96.29 C-34.57 96.3 -38.52 96.3 -42.47 96.3 C-45.77 96.3 -49.07 96.31 -52.37 96.31 C-60.15 96.32 -67.94 96.32 -75.73 96.32 C-83.75 96.31 -91.78 96.32 -99.8 96.34 C-106.7 96.36 -113.6 96.37 -120.5 96.36 C-124.62 96.36 -128.73 96.36 -132.85 96.38 C-136.72 96.39 -140.59 96.39 -144.46 96.38 C-145.88 96.37 -147.3 96.38 -148.72 96.38 C-161.91 96.46 -161.91 96.46 -168 93 C-165 92 -165 92 -162 93 C-159.68 93.12 -157.35 93.19 -155.03 93.22 C-154.32 93.23 -153.6 93.24 -152.87 93.26 C-150.49 93.29 -148.11 93.32 -145.72 93.35 C-144.03 93.38 -142.33 93.4 -140.64 93.42 C-135.11 93.5 -129.59 93.56 -124.06 93.62 C-122.66 93.64 -122.66 93.64 -121.23 93.66 C-94.59 93.97 -67.96 94.1 -41.33 93.78 C-39.13 93.75 -36.93 93.73 -34.72 93.71 C-30.65 93.68 -26.58 93.61 -22.51 93.55 C-21.32 93.54 -20.13 93.53 -18.9 93.52 C-13.18 93.4 -8.95 93.19 -4 90 C-3.26 89.71 -2.51 89.42 -1.75 89.12 C0.72 87.54 1.11 85.73 2 83 C2.33 82.34 2.66 81.68 3 81 C3.11 78.81 3.15 76.61 3.16 74.41 C3.17 73.74 3.17 73.06 3.18 72.36 C3.19 70.12 3.2 67.87 3.2 65.62 C3.21 64.06 3.21 62.49 3.22 60.93 C3.23 57.64 3.24 54.35 3.24 51.06 C3.25 46.87 3.27 42.68 3.3 38.49 C3.32 35.25 3.32 32.01 3.32 28.78 C3.33 27.23 3.33 25.69 3.35 24.15 C3.41 15.69 3.19 7.96 0 0 Z " fill="#F2F6FA" transform="translate(380,382)"/>
<path d="M0 0 C4.75 3.81 7.19 8.2 8.08 14.2 C8.12 15.38 8.16 16.55 8.2 17.77 C5.69 20.28 -0.62 19.88 -4.11 20.04 C-7.8 19.77 -7.8 19.77 -10.02 18.3 C-11.55 16.39 -11.55 16.39 -12.72 14.43 C-13.77 12.43 -13.77 12.43 -16.8 11.77 C-18.46 11.65 -20.13 11.59 -21.8 11.58 C-22.66 11.56 -23.53 11.55 -24.42 11.54 C-27.06 11.6 -27.06 11.6 -29.8 13.77 C-30.3 16.22 -30.3 16.22 -29.8 18.77 C-27.5 21.76 -25.16 22.46 -21.57 23.38 C-20.54 23.66 -19.51 23.94 -18.44 24.22 C-16.29 24.79 -14.13 25.34 -11.97 25.9 C-5.27 27.72 1.1 29.84 6.2 34.77 C6.94 36.95 6.94 36.95 7.2 38.77 C6.21 38.11 5.22 37.45 4.2 36.77 C4.2 36.11 4.2 35.45 4.2 34.77 C3.47 34.47 2.73 34.18 1.97 33.88 C0.34 33.22 -1.29 32.55 -2.91 31.84 C-8.84 29.29 -14.77 27.68 -21.09 26.42 C-26.31 25.27 -29.1 23.47 -32.8 19.77 C-33.42 16.7 -33.42 16.7 -32.8 13.77 C-31.04 11.44 -29.68 10.13 -26.98 9.02 C-21.04 8.34 -16.92 8.46 -11.8 11.77 C-11.23 12.61 -10.66 13.46 -10.07 14.33 C-7.94 17.08 -7.94 17.08 -4.34 17.47 C-3.09 17.51 -1.84 17.54 -0.55 17.58 C0.72 17.63 1.98 17.67 3.28 17.72 C4.73 17.74 4.73 17.74 6.2 17.77 C5.31 11.01 3.59 6.16 -1.8 1.77 C-11.53 -3.87 -22.83 -4.79 -33.67 -1.98 C-39.94 0.22 -44.68 3.6 -47.95 9.46 C-50.09 15.28 -49.69 21.46 -47.3 27.14 C-42.12 35.79 -32.33 37.24 -23.23 39.55 C-11.01 42.77 -11.01 42.77 -7.8 46.77 C-7.36 50.2 -7.36 50.2 -7.8 53.77 C-9.66 56.13 -11.12 57.43 -13.8 58.77 C-19.36 59.27 -24.23 59.48 -29.36 57.14 C-31.8 54.77 -31.8 54.77 -32.97 51.67 C-33.57 50.71 -34.18 49.75 -34.8 48.77 C-37.63 48.13 -39.66 47.88 -42.48 47.89 C-43.19 47.87 -43.89 47.85 -44.61 47.83 C-46.34 47.78 -48.07 47.77 -49.8 47.77 C-49.8 50.41 -49.8 53.05 -49.8 55.77 C-51.4 53.22 -51.86 52.15 -51.36 49.12 C-51.17 48.34 -50.99 47.57 -50.8 46.77 C-35.28 45.53 -35.28 45.53 -31.73 48.48 C-30.55 50.64 -30.55 50.64 -29.62 52.85 C-28.91 55.01 -28.91 55.01 -26.42 56.27 C-21.66 57.17 -18.03 57.2 -13.42 55.58 C-10.64 54 -10.64 54 -9.73 51.33 C-9.81 48.09 -10.62 47.12 -12.8 44.77 C-14.9 43.87 -14.9 43.87 -17.3 43.49 C-18.18 43.31 -19.06 43.13 -19.97 42.94 C-20.9 42.76 -21.84 42.58 -22.8 42.39 C-32.86 40.2 -43.17 37.52 -49.77 28.95 C-52.45 23.23 -52.57 15.87 -51.11 9.77 C-48.51 3.82 -44.46 -0.18 -38.8 -3.23 C-25.82 -8.23 -11.78 -7.63 0 0 Z " fill="#F0F3F9" transform="translate(885.796875,547.234375)"/>
<path d="M0 0 C0.83 0.68 1.66 1.36 2.51 2.06 C8.82 9.89 9.45 18.97 9.27 28.67 C9.26 29.83 9.25 30.99 9.25 32.19 C9.23 35.85 9.18 39.52 9.12 43.19 C9.1 45.69 9.09 48.19 9.07 50.7 C9.03 56.8 8.96 62.9 8.88 69 C2.27 69 -4.33 69 -11.12 69 C-11.12 68.67 -11.12 68.34 -11.12 68 C-5.18 68 0.75 68 6.88 68 C6.81 60.76 6.72 53.52 6.61 46.28 C6.58 43.82 6.55 41.36 6.53 38.9 C6.49 35.35 6.44 31.8 6.39 28.25 C6.38 27.16 6.37 26.07 6.37 24.95 C6.2 15.9 4.91 8.26 -1.46 1.5 C-8.95 -5.26 -18.26 -6.5 -28.07 -6.32 C-35.48 -5.55 -43.95 -2.6 -49.12 3 C-51.78 7.46 -53.21 11.91 -54.12 17 C-51.7 16.99 -49.29 16.95 -46.88 16.88 C-45.85 16.88 -45.85 16.88 -44.81 16.88 C-42.5 16.85 -42.5 16.85 -39.12 16 C-36.78 13.15 -36.78 13.15 -35.12 10 C-30.31 7.07 -26.62 6.63 -21.2 7.49 C-17.23 8.46 -14.94 10.04 -12.31 13.12 C-11.11 16.03 -11 17.6 -11.05 20.68 C-11.06 21.49 -11.07 22.3 -11.08 23.13 C-11.1 23.75 -11.11 24.36 -11.12 25 C-11.89 25.01 -12.65 25.02 -13.43 25.03 C-16.93 25.08 -20.43 25.17 -23.94 25.25 C-25.13 25.26 -26.33 25.28 -27.56 25.29 C-35.58 25.51 -44.37 26.08 -50.84 31.41 C-55.47 36.64 -56.38 41.5 -56.25 48.31 C-56.23 49.57 -56.21 50.82 -56.2 52.11 C-56.17 53.07 -56.15 54.02 -56.12 55 C-59.05 52.08 -59.34 49.35 -59.5 45.38 C-59.42 38.91 -57.13 33.99 -52.55 29.43 C-44.57 23.2 -35.35 22.52 -25.56 22.31 C-23.91 22.26 -23.91 22.26 -22.22 22.21 C-19.52 22.13 -16.82 22.06 -14.12 22 C-13.09 18.71 -13.09 18.71 -14.31 15.44 C-16.14 12.98 -17.54 11.6 -20.12 10 C-22.58 9.6 -22.58 9.6 -25.12 9.75 C-25.97 9.77 -26.82 9.78 -27.69 9.8 C-29.97 9.99 -31.96 10.26 -34.12 11 C-35.25 12.83 -35.25 12.83 -36.12 15 C-37.25 17.11 -37.25 17.11 -39.12 19 C-42.38 19.5 -42.38 19.5 -46.12 19.44 C-47.36 19.44 -48.6 19.43 -49.88 19.43 C-53.12 19 -53.12 19 -55.1 17.74 C-56.48 15.39 -56.21 14.31 -55.56 11.69 C-53.41 3.72 -48.91 -0.66 -42.12 -5 C-28.79 -12.3 -11.35 -9.68 0 0 Z " fill="#F1F4FA" transform="translate(818.125,550)"/>
<path d="M0 0 C0.8 0 1.6 0.01 2.42 0.01 C3.61 0.01 3.61 0.01 4.84 0 C10.79 0.01 10.79 0.01 11.92 1.14 C12 2.7 12.02 4.26 12.02 5.83 C12.01 6.77 12.01 7.72 12.01 8.69 C12 9.68 11.99 10.68 11.98 11.7 C11.98 12.7 11.97 13.69 11.97 14.72 C11.95 17.19 11.94 19.66 11.92 22.14 C12.69 21.98 13.46 21.82 14.26 21.65 C16.89 21.14 19.36 20.9 22.04 20.82 C22.89 20.79 23.74 20.75 24.61 20.71 C26.92 21.14 26.92 21.14 28.71 22.77 C30.26 25.81 30.22 27.99 30.11 31.39 C30.06 33 30.06 33 30.02 34.65 C29.99 35.47 29.95 36.29 29.92 37.14 C25.99 38.99 22.93 39.36 18.61 39.26 C17.54 39.24 16.47 39.23 15.37 39.21 C14.15 39.17 14.15 39.17 12.92 39.14 C12.89 44.19 12.88 49.24 12.86 54.3 C12.86 56.02 12.85 57.74 12.84 59.45 C12.83 61.93 12.82 64.4 12.82 66.87 C12.82 67.64 12.81 68.4 12.8 69.19 C12.8 72.69 12.98 75.78 13.92 79.14 C19.86 79.3 19.86 79.3 25.73 78.51 C28.45 78.05 29.63 78.69 31.92 80.14 C31.42 81.62 31.42 81.62 30.92 83.14 C30.69 85.53 30.51 87.93 30.36 90.32 C30.27 91.6 30.19 92.87 30.1 94.18 C30.01 95.64 30.01 95.64 29.92 97.14 C26.73 97.2 23.54 97.23 20.36 97.26 C19.46 97.28 18.56 97.3 17.64 97.31 C10.53 97.36 3.64 96.81 -2.08 92.14 C-6.62 85.88 -7.81 80.5 -7.75 72.89 C-7.77 71.95 -7.78 71.01 -7.79 70.04 C-7.83 67.07 -7.83 64.11 -7.83 61.14 C-7.85 58.14 -7.88 55.14 -7.91 52.15 C-7.93 50.29 -7.94 48.43 -7.94 46.58 C-7.55 42.54 -7.55 42.54 -9.08 39.14 C-10.76 38.9 -12.45 38.72 -14.14 38.57 C-15.77 38.43 -17.4 38.29 -19.08 38.14 C-19.08 32.86 -19.08 27.58 -19.08 22.14 C-17.1 21.81 -15.12 21.48 -13.08 21.14 C-11.41 20.81 -9.75 20.48 -8.08 20.14 C-8.06 19.57 -8.03 19 -8.01 18.41 C-7.89 15.84 -7.77 13.27 -7.64 10.7 C-7.61 9.8 -7.57 8.9 -7.53 7.98 C-7.48 7.12 -7.44 6.27 -7.4 5.39 C-7.34 4.2 -7.34 4.2 -7.29 2.99 C-6.82 -1.21 -3.52 0.01 0 0 Z M-6.08 2.14 C-6.08 9.07 -6.08 16 -6.08 23.14 C-10.04 23.14 -14 23.14 -18.08 23.14 C-18.08 27.76 -18.08 32.38 -18.08 37.14 C-14.12 37.14 -10.16 37.14 -6.08 37.14 C-6.1 38.36 -6.12 39.58 -6.15 40.83 C-6.22 45.4 -6.26 49.97 -6.3 54.53 C-6.32 56.5 -6.35 58.47 -6.38 60.44 C-6.43 63.28 -6.46 66.13 -6.47 68.97 C-6.49 69.84 -6.51 70.71 -6.54 71.6 C-6.54 78.96 -4.93 86.05 0.17 91.57 C9.45 96.85 17.51 96.46 27.92 96.14 C27.92 90.86 27.92 85.58 27.92 80.14 C22.97 80.14 18.02 80.14 12.92 80.14 C12.17 77.15 11.78 75.08 11.71 72.1 C11.69 71.32 11.67 70.54 11.65 69.74 C11.63 68.49 11.63 68.49 11.6 67.21 C11.58 66.35 11.56 65.49 11.54 64.61 C11.47 61.87 11.41 59.13 11.36 56.39 C11.31 54.53 11.27 52.67 11.22 50.8 C11.12 46.25 11.02 41.69 10.92 37.14 C16.2 37.14 21.48 37.14 26.92 37.14 C26.92 32.52 26.92 27.9 26.92 23.14 C21.64 23.14 16.36 23.14 10.92 23.14 C10.92 16.21 10.92 9.28 10.92 2.14 C5.31 2.14 -0.3 2.14 -6.08 2.14 Z " fill="#FBFCFD" transform="translate(725.08203125,521.86328125)"/>
<path d="M0 0 C1.14 -0.02 2.28 -0.04 3.45 -0.06 C4.67 -0.06 5.89 -0.06 7.15 -0.07 C8.41 -0.08 9.68 -0.09 10.98 -0.1 C13.65 -0.11 16.32 -0.12 18.99 -0.12 C22.4 -0.12 25.81 -0.16 29.22 -0.21 C32.49 -0.25 35.75 -0.25 39.02 -0.26 C40.24 -0.28 41.46 -0.3 42.71 -0.32 C49.29 -0.27 53.34 0.16 58.05 4.95 C61.6 9.47 60.48 15.64 60.51 21.13 C60.53 23.23 60.58 25.33 60.62 27.43 C60.63 28.77 60.64 30.11 60.65 31.46 C60.66 32.67 60.67 33.89 60.69 35.15 C60.11 39.18 59.18 40.67 56.22 43.44 C50.16 47.03 44.36 46.89 37.44 46.87 C36.32 46.87 35.19 46.88 34.03 46.89 C31.66 46.89 29.29 46.89 26.91 46.88 C23.3 46.87 19.68 46.9 16.06 46.93 C13.75 46.94 11.44 46.93 9.13 46.93 C7.52 46.95 7.52 46.95 5.87 46.97 C-0.8 46.9 -5.08 45.97 -10.78 42.44 C-15.91 37.14 -15.03 30.11 -15.09 23.19 C-15.12 22.17 -15.15 21.16 -15.18 20.12 C-15.23 13.93 -14.88 8.37 -10.78 3.44 C-7.08 0.81 -4.52 0.05 0 0 Z M-10.78 5.44 C-14.31 10.29 -13.11 17.15 -13.09 22.87 C-13.11 24.1 -13.13 25.33 -13.14 26.59 C-13.14 27.78 -13.14 28.96 -13.14 30.18 C-13.15 31.26 -13.15 32.34 -13.15 33.45 C-12.72 36.95 -11.99 38.7 -9.78 41.44 C-4.29 45.49 1.91 44.87 8.44 44.83 C10.21 44.84 10.21 44.84 12.01 44.84 C14.5 44.84 16.98 44.84 19.47 44.83 C23.27 44.81 27.07 44.83 30.88 44.85 C33.29 44.84 35.71 44.84 38.13 44.83 C39.27 44.84 40.4 44.85 41.57 44.85 C42.63 44.84 43.7 44.83 44.79 44.82 C45.72 44.82 46.65 44.82 47.61 44.82 C51.73 44.22 54.39 42.14 57.5 39.49 C60.2 34.68 59.76 29.97 59.66 24.56 C59.66 23.5 59.67 22.43 59.68 21.34 C59.62 14.16 59.18 8.92 54.39 3.28 C49.38 0.36 44.39 0.87 38.69 0.9 C36.86 0.9 36.86 0.9 34.99 0.89 C32.41 0.89 29.83 0.9 27.25 0.91 C23.3 0.94 19.35 0.91 15.41 0.89 C12.9 0.89 10.39 0.9 7.88 0.9 C6.11 0.89 6.11 0.89 4.31 0.88 C-1.96 0.95 -6.13 1.02 -10.78 5.44 Z " fill="#E1E8F3" transform="translate(220.78076171875,500.564208984375)"/>
<path d="M0 0 C4.62 0 9.24 0 14 0 C14 21.78 14 43.56 14 66 C20.93 66 27.86 66 35 66 C35 44.22 35 22.44 35 0 C41.6 0 48.2 0 55 0 C55 0.33 55 0.66 55 1 C46.59 1.5 46.59 1.5 38 2 C37.96 4.95 37.96 4.95 37.92 7.95 C37.84 14.43 37.75 20.9 37.66 27.37 C37.61 31.3 37.55 35.23 37.5 39.15 C37.46 42.94 37.4 46.73 37.35 50.51 C37.33 51.96 37.31 53.41 37.29 54.86 C37.27 56.88 37.24 58.9 37.21 60.92 C37.19 62.07 37.17 63.22 37.16 64.41 C37 67 37 67 36 68 C34.46 68.1 32.92 68.13 31.38 68.13 C29.98 68.13 29.98 68.13 28.54 68.14 C27.07 68.13 27.07 68.13 25.56 68.12 C24.09 68.13 24.09 68.13 22.59 68.14 C21.66 68.14 20.72 68.13 19.75 68.13 C18.46 68.13 18.46 68.13 17.14 68.13 C15 68 15 68 13 67 C13 45.55 13 24.1 13 2 C8.71 1.67 4.42 1.34 0 1 C0 0.67 0 0.34 0 0 Z " fill="#DFE6F1" transform="translate(590,415)"/>
<path d="M0 0 C-0.66 0.33 -1.32 0.66 -2 1 C-3.2 0.55 -4.39 0.09 -5.62 -0.38 C-17.18 -4.43 -30.14 -3.85 -41.44 0.62 C-54.48 6.93 -62.25 15.94 -67.22 29.48 C-72.22 45.67 -70.92 62.78 -63.31 77.94 C-60.06 83.45 -55.74 87.74 -51 92 C-55.01 92 -56.07 90.68 -59 88 C-69.38 74.82 -74.59 59.83 -73 43 C-70.12 26.69 -63.97 12.65 -50.62 2.12 C-36.6 -7.12 -14.61 -8.46 0 0 Z " fill="#EFF3F9" transform="translate(520,518)"/>
<path d="M0 0 C3.69 1.23 5.53 3.36 7.81 6.5 C9.72 10.52 10.12 13.88 10.11 18.32 C10.11 19.38 10.11 20.44 10.11 21.53 C10.11 22.67 10.1 23.81 10.1 24.98 C10.1 26.16 10.09 27.33 10.09 28.53 C10.09 32.27 10.08 36.01 10.06 39.75 C10.06 42.29 10.05 44.82 10.05 47.36 C10.04 53.57 10.02 59.79 10 66 C17.26 66 24.52 66 32 66 C32 47.85 32 29.7 32 11 C32.33 11 32.66 11 33 11 C33 29.48 33 47.96 33 67 C30 68 28.03 68.12 24.89 68.1 C23.91 68.09 22.93 68.09 21.92 68.09 C20.89 68.08 19.87 68.07 18.81 68.06 C17.26 68.06 17.26 68.06 15.67 68.05 C13.12 68.04 10.56 68.02 8 68 C8 67.29 7.99 66.57 7.99 65.84 C7.95 59.1 7.89 52.36 7.82 45.62 C7.78 42.16 7.74 38.7 7.73 35.23 C7.71 31.25 7.66 27.26 7.61 23.27 C7.61 22.04 7.61 20.8 7.61 19.52 C7.48 10.95 7.48 10.95 3 4 C-2.92 0.66 -10.31 1.27 -16.69 3 C-17.45 3.33 -18.21 3.66 -19 4 C-13.7 -1.54 -7.32 -0.6 0 0 Z " fill="#F0F3F9" transform="translate(550,415)"/>
<path d="M0 0 C0.5 8.42 0.5 8.42 1 17 C-0.91 17.06 -0.91 17.06 -2.87 17.11 C-4.54 17.18 -6.21 17.25 -7.88 17.31 C-8.72 17.34 -9.56 17.36 -10.43 17.38 C-11.63 17.43 -11.63 17.43 -12.87 17.49 C-13.61 17.51 -14.35 17.54 -15.12 17.57 C-17.41 17.87 -17.41 17.87 -19 21 C-19.46 23.97 -19.46 23.97 -19.62 27.19 C-19.7 28.27 -19.77 29.36 -19.85 30.48 C-19.9 31.31 -19.95 32.14 -20 33 C-18.88 32.98 -17.76 32.95 -16.61 32.93 C-15.13 32.91 -13.66 32.89 -12.19 32.88 C-11.45 32.86 -10.71 32.84 -9.95 32.82 C-6.09 32.79 -4.29 32.81 -1 35 C-7.6 35 -14.2 35 -21 35 C-21.06 32.61 -21.12 30.22 -21.19 27.75 C-21.23 26.63 -21.23 26.63 -21.27 25.49 C-21.31 22.59 -21.09 20.23 -20.03 17.53 C-16.73 15.04 -13.32 15.58 -9.31 15.75 C-8.52 15.77 -7.72 15.79 -6.9 15.8 C-4.93 15.85 -2.97 15.92 -1 16 C-1 11.05 -1 6.1 -1 1 C-18.41 -0.26 -18.41 -0.26 -33.81 6.47 C-41.36 14.15 -41.46 24.85 -42 35 C-46.62 35 -51.24 35 -56 35 C-56 40.94 -56 46.88 -56 53 C-56.33 53 -56.66 53 -57 53 C-57 46.73 -57 40.46 -57 34 C-54.24 32.62 -51.95 32.9 -48.88 32.94 C-47.78 32.95 -46.68 32.96 -45.55 32.96 C-44.71 32.98 -43.87 32.99 -43 33 C-43.05 32.11 -43.09 31.21 -43.14 30.29 C-43.42 20.83 -42.24 14.21 -37.25 6.19 C-27.63 -3.16 -12.39 -6.19 0 0 Z " fill="#F8FAFC" transform="translate(646,362)"/>
<path d="M0 0 C0.79 0.05 1.58 0.11 2.39 0.16 C8.22 0.59 8.22 0.59 9.38 1.75 C9.47 4.09 9.5 6.41 9.49 8.75 C9.49 9.48 9.49 10.21 9.49 10.97 C9.49 13.39 9.48 15.82 9.47 18.25 C9.47 19.93 9.47 21.61 9.47 23.29 C9.46 27.72 9.45 32.16 9.44 36.59 C9.43 41.1 9.43 45.62 9.42 50.14 C9.41 59.01 9.4 67.88 9.38 76.75 C3.11 76.75 -3.16 76.75 -9.62 76.75 C-9.62 76.42 -9.62 76.09 -9.62 75.75 C-3.68 75.75 2.25 75.75 8.38 75.75 C8.38 51.66 8.38 27.57 8.38 2.75 C2.43 2.75 -3.5 2.75 -9.62 2.75 C-9.61 4.14 -9.59 5.53 -9.58 6.97 C-9.52 12.15 -9.49 17.32 -9.46 22.5 C-9.45 24.74 -9.42 26.98 -9.4 29.22 C-9.36 32.44 -9.35 35.66 -9.33 38.88 C-9.32 39.88 -9.3 40.88 -9.29 41.9 C-9.28 47.28 -9.55 51.13 -12.62 55.75 C-17.36 60.13 -21.07 61.05 -27.34 60.97 C-30.65 60.65 -32.89 59.62 -35.62 57.75 C-37 55.56 -37 55.56 -37.62 53.75 C-36.42 54.71 -36.42 54.71 -35.19 55.69 C-31.21 58.3 -27.36 59.08 -22.62 58.75 C-18.3 57.54 -15.52 56.11 -13.03 52.32 C-11.13 47.5 -11.31 43.33 -11.44 38.21 C-11.45 37.2 -11.46 36.2 -11.47 35.16 C-11.51 31.96 -11.56 28.76 -11.62 25.56 C-11.7 21.34 -11.76 17.12 -11.81 12.89 C-11.84 11.92 -11.86 10.95 -11.89 9.95 C-11.9 8.6 -11.9 8.6 -11.92 7.22 C-11.93 6.43 -11.95 5.63 -11.97 4.82 C-11.62 2.75 -11.62 2.75 -10.36 0.98 C-7.29 -1.2 -3.58 -0.31 0 0 Z " fill="#FAFCFD" transform="translate(610.625,542.25)"/>
<path d="M0 0 C0.33 0 0.66 0 1 0 C1 2.31 1 4.62 1 7 C0.41 7.29 -0.18 7.58 -0.79 7.88 C-6.71 10.95 -10.94 13.88 -14 20 C-14.5 25.48 -14.69 30.39 -12.5 35.5 C-6.75 41.25 0.83 43.02 8.45 45.16 C15.03 47.07 15.03 47.07 17 50 C17.59 54.06 17.67 56.1 15.19 59.44 C10.48 61.74 6.14 61.91 1 61 C-2.22 58.57 -3.77 56.34 -6 53 C-8.44 52.64 -8.44 52.64 -11.12 52.81 C-12.04 52.84 -12.95 52.87 -13.88 52.89 C-14.58 52.93 -15.28 52.96 -16 53 C-16.08 56.52 -16.04 59.62 -15 63 C-17.03 61.58 -17.9 60.45 -18.42 58.02 C-18.66 56.02 -18.84 54.01 -19 52 C-14.72 49.6 -10.82 48.99 -6 50 C-3.61 51.8 -2.62 53.39 -1 56 C-1 56.66 -1 57.32 -1 58 C2.73 59.19 6.11 59.41 10 59 C12.94 56.65 12.94 56.65 15 54 C13.53 50.11 11.63 48.89 8 47 C6.08 46.48 4.14 46.02 2.19 45.62 C-5.51 43.81 -11.62 40.83 -16 34 C-18.24 28.58 -17.5 22.61 -15.38 17.31 C-12.69 11.81 -9.31 9.05 -3.69 6.5 C-0.75 5.26 -0.75 5.26 -0.12 2.31 C-0.08 1.55 -0.04 0.79 0 0 Z " fill="#F2F6FC" transform="translate(288,385)"/>
<path d="M0 0 C1.08 -0.01 2.16 -0.03 3.27 -0.04 C4.44 -0.05 5.61 -0.05 6.82 -0.06 C8.02 -0.07 9.22 -0.08 10.46 -0.09 C13 -0.1 15.55 -0.11 18.1 -0.12 C21.99 -0.14 25.88 -0.18 29.77 -0.22 C32.24 -0.23 34.72 -0.24 37.19 -0.25 C38.35 -0.27 39.51 -0.28 40.71 -0.3 C48.45 -0.28 53.02 0.52 58.74 6.01 C61.04 10.57 60.35 15.96 60.34 20.97 C60.34 23.04 60.38 25.11 60.42 27.18 C60.44 38.35 60.44 38.35 57.62 42 C53.3 45.38 49.76 46.43 44.31 46.45 C43.23 46.46 42.15 46.47 41.04 46.48 C39.88 46.48 38.72 46.48 37.53 46.48 C36.33 46.48 35.13 46.49 33.89 46.49 C31.36 46.5 28.82 46.5 26.29 46.49 C22.42 46.49 18.54 46.51 14.67 46.54 C12.2 46.54 9.74 46.54 7.28 46.54 C6.12 46.55 4.96 46.56 3.77 46.57 C-2.02 46.53 -6.27 46.43 -11.16 43.18 C-10.83 42.52 -10.5 41.86 -10.16 41.18 C-9.25 41.66 -8.33 42.15 -7.39 42.65 C-2.24 44.85 2.91 44.61 8.43 44.58 C9.53 44.58 10.64 44.58 11.78 44.58 C14.11 44.59 16.44 44.58 18.77 44.57 C22.32 44.55 25.88 44.57 29.43 44.59 C31.7 44.59 33.97 44.58 36.24 44.58 C37.3 44.58 38.36 44.59 39.45 44.59 C45.31 44.54 49.76 44.24 54.84 41.18 C57.72 37.67 58.22 34.91 58.23 30.43 C58.24 29.35 58.24 28.26 58.25 27.14 C58.23 26.02 58.22 24.9 58.21 23.74 C58.22 22.62 58.23 21.5 58.25 20.35 C58.32 12.27 58.32 12.27 54.84 5.18 C49.23 1.35 43.65 1.76 37.12 1.81 C35.99 1.81 34.86 1.81 33.7 1.81 C31.32 1.81 28.93 1.82 26.55 1.84 C22.91 1.86 19.28 1.86 15.64 1.85 C13.32 1.86 11 1.87 8.68 1.88 C7.6 1.88 6.52 1.87 5.4 1.87 C-0.17 1.93 -4.9 2.3 -10.16 4.18 C-6.78 0.64 -4.89 0.05 0 0 Z " fill="#F8FAFC" transform="translate(221.164794921875,566.822998046875)"/>
<path d="M0 0 C1.53 -0.01 1.53 -0.01 3.1 -0.03 C4.75 -0.04 4.75 -0.04 6.44 -0.04 C7.57 -0.05 8.71 -0.05 9.88 -0.06 C12.28 -0.07 14.69 -0.08 17.09 -0.08 C20.77 -0.09 24.44 -0.12 28.12 -0.15 C30.45 -0.16 32.79 -0.16 35.13 -0.17 C36.22 -0.18 37.32 -0.19 38.45 -0.2 C45.72 -0.18 50.07 0.79 55.82 5.47 C59.65 10.45 58.66 17.21 58.54 23.16 C58.55 24.42 58.57 25.68 58.58 26.97 C58.48 38.71 58.48 38.71 53.98 43.16 C48.24 47.07 42.41 46.58 35.72 46.52 C33.95 46.53 33.95 46.53 32.15 46.53 C29.66 46.52 27.17 46.51 24.68 46.5 C20.86 46.47 17.05 46.48 13.24 46.48 C10.81 46.48 8.39 46.47 5.97 46.46 C4.83 46.46 3.69 46.46 2.51 46.46 C1.45 46.46 0.39 46.45 -0.7 46.44 C-1.64 46.43 -2.57 46.43 -3.53 46.42 C-6.13 46.15 -7.78 45.48 -10.02 44.16 C-7.02 43.16 -7.02 43.16 -4.02 44.16 C-2.41 44.26 -0.8 44.31 0.82 44.32 C1.8 44.33 2.78 44.34 3.79 44.35 C5.38 44.36 5.38 44.36 7 44.36 C8.09 44.37 9.18 44.38 10.31 44.38 C12.62 44.39 14.93 44.4 17.24 44.4 C20.77 44.41 24.3 44.44 27.83 44.47 C30.07 44.48 32.32 44.49 34.56 44.49 C35.62 44.5 36.67 44.51 37.76 44.53 C44.19 44.51 48.6 43.84 53.79 39.72 C57.1 35.37 56.2 29.03 56.23 23.85 C56.25 22.92 56.27 22 56.29 21.05 C56.33 15.29 55.75 11.24 52.98 6.16 C49.36 2.76 46.03 2.04 41.16 2.02 C40.18 2.01 39.21 2 38.2 2 C37.14 2 36.09 1.99 35 1.99 C33.91 1.99 32.82 1.99 31.7 1.98 C29.39 1.98 27.08 1.98 24.78 1.98 C21.26 1.97 17.74 1.96 14.22 1.94 C11.98 1.93 9.74 1.93 7.5 1.93 C5.92 1.92 5.92 1.92 4.32 1.91 C-1.19 1.93 -5.81 2.31 -11.02 4.16 C-7.67 0.49 -4.85 0.04 0 0 Z " fill="#F6F9FC" transform="translate(321.018798828125,566.8388671875)"/>
<path d="M0 0 C3.87 1.47 5.18 3.33 7 7 C7.39 9.97 7.39 9.97 7.4 13.22 C7.4 14.4 7.41 15.58 7.41 16.79 C7.4 18.02 7.39 19.24 7.38 20.5 C7.39 21.72 7.4 22.95 7.41 24.21 C7.41 25.39 7.4 26.57 7.4 27.78 C7.4 28.85 7.39 29.93 7.39 31.03 C6.79 35.61 4.9 38.17 1.56 41.25 C-2.23 43.84 -5.39 44.12 -9.92 44.18 C-11.38 44.2 -11.38 44.2 -12.87 44.22 C-13.92 44.22 -14.97 44.23 -16.05 44.24 C-17.67 44.25 -17.67 44.25 -19.34 44.26 C-21.63 44.28 -23.93 44.29 -26.22 44.3 C-29.72 44.31 -33.22 44.36 -36.72 44.4 C-38.95 44.41 -41.19 44.42 -43.42 44.43 C-44.46 44.44 -45.5 44.46 -46.57 44.48 C-54.6 44.46 -59.43 42.38 -66 38 C-65.67 36.68 -65.34 35.36 -65 34 C-64.28 34.78 -63.56 35.57 -62.81 36.38 C-58.76 40.16 -55.35 41.24 -49.86 41.29 C-48.86 41.3 -47.87 41.32 -46.84 41.33 C-45.77 41.33 -44.7 41.33 -43.6 41.34 C-42.49 41.34 -41.38 41.35 -40.24 41.36 C-37.9 41.37 -35.56 41.37 -33.22 41.37 C-29.64 41.37 -26.07 41.41 -22.5 41.45 C-20.22 41.46 -17.94 41.46 -15.66 41.46 C-14.6 41.48 -13.54 41.49 -12.44 41.5 C-6.12 41.47 -2.04 40.97 3 37 C5.87 32.07 5.33 26.67 5.31 21.12 C5.33 20.16 5.34 19.19 5.36 18.19 C5.37 10.8 4.14 6.2 0 0 Z " fill="#D3DDED" transform="translate(372,503)"/>
<path d="M0 0 C0.83 0.68 1.66 1.36 2.51 2.06 C8.82 9.89 9.45 18.97 9.27 28.67 C9.26 29.83 9.25 30.99 9.25 32.19 C9.23 35.85 9.18 39.52 9.12 43.19 C9.1 45.69 9.09 48.19 9.07 50.7 C9.03 56.8 8.96 62.9 8.88 69 C2.27 69 -4.33 69 -11.12 69 C-11.12 68.67 -11.12 68.34 -11.12 68 C-5.18 68 0.75 68 6.88 68 C6.81 60.76 6.72 53.52 6.61 46.28 C6.58 43.82 6.55 41.36 6.53 38.9 C6.49 35.35 6.44 31.8 6.39 28.25 C6.38 27.16 6.37 26.07 6.37 24.95 C6.2 15.9 4.91 8.26 -1.46 1.5 C-10.3 -6.49 -21.79 -6.39 -33.12 -7 C-33.12 -7.33 -33.12 -7.66 -33.12 -8 C-20.86 -10.08 -9.62 -8.2 0 0 Z " fill="#F8FAFC" transform="translate(818.125,550)"/>
<path d="M0 0 C3.16 2.17 6.12 4.47 9 7 C8.67 7.66 8.34 8.32 8 9 C7.43 8.54 6.86 8.08 6.27 7.61 C-3.2 0.45 -14.02 -3.65 -26 -2 C-36.27 0.23 -44.24 4.75 -50.38 13.38 C-56.58 23.67 -57.77 34.82 -55.24 46.52 C-53.62 51.7 -51.91 56.09 -48 60 C-48.5 60.99 -48.5 60.99 -49 62 C-56.29 53.35 -59.43 43.98 -59.28 32.62 C-57.91 19.82 -52.31 10.17 -42.64 1.99 C-31.18 -6.64 -12.48 -7.11 0 0 Z " fill="#EFF3F9" transform="translate(686,546)"/>
<path d="M0 0 C3.58 1.19 3.92 1.91 5.69 5.12 C9.16 12.44 9.43 20.77 7.3 28.56 C4.76 34.22 0.76 37.74 -4.88 40.31 C-11.51 41.77 -16.26 41.56 -22.18 38.27 C-26.62 35.18 -29.37 31.15 -31 26 C-31.21 23.31 -31.32 20.75 -31.31 18.06 C-31.33 17.37 -31.34 16.68 -31.36 15.97 C-31.37 11.23 -30.41 8.06 -28 4 C-27.67 4.66 -27.34 5.32 -27 6 C-27.3 6.73 -27.6 7.45 -27.91 8.2 C-30.2 14.1 -29.93 21.43 -28.35 27.52 C-26.2 32.34 -22.98 36.07 -18 38 C-12.36 38.86 -7.68 38.81 -2.5 36.31 C3.23 31.01 5.57 26.55 6.31 18.69 C5.78 12.37 4.69 6.46 0 2 C0 1.34 0 0.68 0 0 Z " fill="#E9EEF6" transform="translate(678,563)"/>
<path d="M0 0 C4.86 0.42 6.86 2.37 10 6 C12.6 9.62 13.49 12.59 14 17 C9.69 19.43 5.87 19.85 1 19 C-1.57 17.59 -2.96 16.2 -5 14 C-5 13.34 -5 12.68 -5 12 C-11.03 11.52 -11.03 11.52 -16.56 13.5 C-17.04 14 -17.51 14.49 -18 15 C-17.88 17.45 -17.88 17.45 -17 20 C-14.89 21.31 -14.89 21.31 -12.19 22 C-7.84 23.39 -3.64 24.91 0.56 26.69 C2.05 27.31 2.05 27.31 3.57 27.95 C5.06 28.59 6.54 29.27 8 30 C8 30.66 8 31.32 8 32 C7.38 31.74 6.77 31.48 6.13 31.21 C3.52 30.2 0.9 29.27 -1.76 28.38 C-2.63 28.08 -3.5 27.79 -4.4 27.48 C-6.22 26.87 -8.05 26.26 -9.87 25.65 C-10.74 25.36 -11.61 25.06 -12.51 24.75 C-13.3 24.49 -14.09 24.22 -14.9 23.95 C-17.18 22.92 -18.45 21.96 -20 20 C-20.53 16.47 -20.46 14.71 -18.5 11.69 C-15.09 9.39 -12.1 8.79 -8 9 C-4.95 10.29 -3.46 11.23 -1.75 14.07 C-0.09 16.28 -0.09 16.28 2.92 16.61 C4 16.66 5.08 16.7 6.19 16.75 C7.27 16.81 8.36 16.86 9.48 16.92 C10.73 16.96 10.73 16.96 12 17 C10.33 9.85 7.87 6.31 2 2 C1.34 1.34 0.68 0.68 0 0 Z " fill="#ECF1FB" transform="translate(306,393)"/>
<path d="M0 0 C0.33 0 0.66 0 1 0 C1.66 3.3 2.32 6.6 3 10 C8.95 10.16 8.95 10.16 14.81 9.38 C17.53 8.91 18.71 9.56 21 11 C20.67 11.99 20.34 12.98 20 14 C19.77 16.39 19.59 18.79 19.44 21.19 C19.35 22.46 19.27 23.73 19.18 25.04 C19.09 26.51 19.09 26.51 19 28 C15.81 28.06 12.63 28.09 9.44 28.12 C8.09 28.15 8.09 28.15 6.72 28.18 C-0.39 28.23 -7.27 27.67 -13 23 C-15.06 20.16 -16.93 17.35 -18 14 C-17.13 11.71 -17.13 11.71 -16 10 C-15.8 10.66 -15.61 11.33 -15.41 12.01 C-13.39 17.96 -11.55 21.12 -6 24.16 C-2.66 25.56 0.51 26.13 4.11 26.32 C4.86 26.36 5.62 26.4 6.39 26.44 C7.56 26.5 7.56 26.5 8.75 26.56 C9.54 26.61 10.34 26.65 11.15 26.69 C13.1 26.8 15.05 26.9 17 27 C17 21.72 17 16.44 17 11 C16.34 11.33 15.68 11.66 15 12 C13.19 12.15 11.38 12.22 9.56 12.25 C8.11 12.29 8.11 12.29 6.63 12.33 C4 12 4 12 2.21 10.61 C-0.42 7.12 -0.08 4.29 0 0 Z " fill="#F0F4F9" transform="translate(736,591)"/>
<path d="M0 0 C0.59 0.35 1.19 0.7 1.8 1.06 C1.08 1.29 0.37 1.52 -0.36 1.76 C-10.35 4.97 -10.35 4.97 -17.48 12.21 C-19.3 16.11 -20.44 19.82 -21.2 24.06 C-18.78 24.06 -16.37 24.01 -13.95 23.94 C-12.93 23.94 -12.93 23.94 -11.89 23.95 C-9.58 23.91 -9.58 23.91 -6.2 23.06 C-3.88 20.2 -3.88 20.2 -2.2 17.06 C1.89 14.83 5.12 13.64 9.8 14.06 C10.29 15.05 10.29 15.05 10.8 16.06 C9.53 16.21 9.53 16.21 8.24 16.36 C7.15 16.51 6.05 16.66 4.92 16.81 C3.83 16.95 2.74 17.09 1.62 17.23 C-1.28 17.76 -1.28 17.76 -2.4 19.89 C-2.66 20.61 -2.93 21.32 -3.2 22.06 C-4.39 24.29 -4.39 24.29 -6.2 26.06 C-9.45 26.56 -9.45 26.56 -13.2 26.5 C-14.44 26.5 -15.68 26.5 -16.95 26.5 C-20.2 26.06 -20.2 26.06 -22.18 24.8 C-23.56 22.46 -23.29 21.37 -22.64 18.75 C-20.28 10.03 -14.87 5.32 -7.27 0.95 C-2.85 -1.21 -2.85 -1.21 0 0 Z " fill="#EEF1F8" transform="translate(785.203125,542.9375)"/>
<path d="M0 0 C0.94 0 1.88 0.01 2.84 0.01 C4.31 0.02 4.31 0.02 5.8 0.04 C6.79 0.04 7.78 0.04 8.79 0.05 C11.23 0.06 13.67 0.08 16.11 0.1 C16.77 12.36 16.77 12.36 12.11 18.1 C7.33 20.95 2.63 22.05 -2.89 21.1 C-6.63 19.81 -9.97 18.6 -12.09 15.14 C-13.24 12.19 -13.33 10.24 -12.89 7.1 C-9.59 1.63 -6.25 -0.04 0 0 Z M-8.89 4.1 C-9.51 4.51 -10.12 4.92 -10.76 5.35 C-12.18 7.22 -12.18 7.22 -11.95 10.47 C-10.89 14.08 -9.89 15.98 -6.83 18.22 C-1.83 20.48 3.44 19.65 8.49 17.97 C11.74 15.65 13.33 13.67 15.11 10.1 C15.61 6.43 15.61 6.43 15.11 3.1 C12.52 0.51 10.68 0.81 7.14 0.78 C6.37 0.78 5.6 0.78 4.8 0.79 C3.66 0.76 3.66 0.76 2.5 0.74 C-2.16 0.73 -5.04 1.21 -8.89 4.1 Z " fill="#F6F8FB" transform="translate(790.88671875,584.90234375)"/>
<path d="M0 0 C0.5 1.49 0.5 1.49 1 3 C-2.03 8.26 -6.65 11.43 -12 14 C-12.66 14 -13.32 14 -14 14 C-14.33 16.64 -14.66 19.28 -15 22 C-18.01 23 -20.04 23.1 -23.19 23.06 C-24.09 23.05 -24.99 23.04 -25.92 23.04 C-26.61 23.02 -27.29 23.01 -28 23 C-28.28 22.11 -28.28 22.11 -28.56 21.21 C-30.36 16.31 -31.87 13.61 -36.56 11.12 C-37.33 10.78 -38.09 10.43 -38.88 10.07 C-41.05 8.97 -42.39 7.8 -44 6 C-43.67 5.34 -43.34 4.68 -43 4 C-42.2 4.74 -41.39 5.49 -40.56 6.25 C-37.91 8.52 -35.45 9.68 -32.19 10.88 C-29.86 11.82 -29.86 11.82 -28 13 C-26.94 16.75 -26.94 16.75 -27 20 C-23.7 20 -20.4 20 -17 20 C-17.04 18.95 -17.08 17.9 -17.12 16.81 C-16 13 -16 13 -13.88 11.63 C-12.1 10.82 -10.31 10.03 -8.52 9.26 C-4.37 7.19 -2.07 4.14 0 0 Z " fill="#F6F8FD" transform="translate(317,444)"/>
<path d="M0 0 C2.89 2.13 5.49 4.44 8 7 C7.67 7.66 7.34 8.32 7 9 C6.59 8.6 6.17 8.2 5.75 7.79 C-1.54 1.1 -9.69 -1.37 -19.54 -1.21 C-27.59 -0.52 -34.12 2.47 -40 8 C-40.99 9.49 -40.99 9.49 -42 11 C-42.66 11 -43.32 11 -44 11 C-44 7.37 -44 3.74 -44 0 C-43.67 0 -43.34 0 -43 0 C-42.67 1.65 -42.34 3.3 -42 5 C-38.88 3.5 -35.93 1.79 -32.98 0 C-23.32 -4.89 -9.72 -4.94 0 0 Z " fill="#F2F5FA" transform="translate(567,397)"/>
<path d="M0 0 C3.87 1.47 5.18 3.33 7 7 C7.39 9.97 7.39 9.97 7.4 13.22 C7.4 14.4 7.41 15.58 7.41 16.79 C7.4 18.02 7.39 19.24 7.38 20.5 C7.39 21.72 7.4 22.95 7.41 24.21 C7.41 25.39 7.4 26.57 7.4 27.78 C7.4 28.85 7.39 29.93 7.39 31.03 C6.77 35.75 4.87 38.25 1.31 41.31 C0.55 41.87 -0.21 42.43 -1 43 C-1.66 42.34 -2.32 41.68 -3 41 C-2.05 40.44 -1.1 39.89 -0.12 39.31 C3.25 36.82 3.81 35.87 5 32 C5.4 28.38 5.32 24.76 5.31 21.12 C5.33 20.16 5.34 19.19 5.36 18.19 C5.37 10.8 4.14 6.2 0 0 Z " fill="#F6F8FC" transform="translate(372,503)"/>
<path d="M0 0 C0.33 0.66 0.66 1.32 1 2 C0.16 2.1 -0.69 2.2 -1.55 2.3 C-3.2 2.52 -3.2 2.52 -4.88 2.75 C-5.97 2.89 -7.06 3.03 -8.18 3.17 C-11.08 3.69 -11.08 3.69 -12.2 5.83 C-12.46 6.54 -12.73 7.26 -13 8 C-14.18 10.23 -14.18 10.23 -16 12 C-19.36 12.39 -19.36 12.39 -23.19 12.25 C-24.46 12.21 -25.73 12.18 -27.04 12.14 C-28.02 12.09 -28.99 12.05 -30 12 C-30 11.34 -30 10.68 -30 10 C-28.55 10 -28.55 10 -27.08 9.99 C-23.3 9.88 -19.72 9.68 -16 9 C-13.47 6.24 -13.47 6.24 -12 3 C-7.91 0.77 -4.67 -0.42 0 0 Z " fill="#E0E6F1" transform="translate(795,557)"/>
<path d="M0 0 C2.48 0.5 2.48 0.5 5 1 C5.33 1.99 5.66 2.98 6 4 C6.66 4 7.32 4 8 4 C12.96 10.81 16.09 17.62 17 26 C14.65 23.65 14.28 22.03 13.31 18.88 C11.27 13.02 8.27 9.38 4 5 C2.65 3.34 1.31 1.68 0 0 Z " fill="#A6B0CE" transform="translate(526,525)"/>
<path d="M0 0 C3.93 0.27 5.55 0.52 8.31 3.44 C11.68 8.56 11 8.4 11 16 C4.4 16 -2.2 16 -9 16 C-9 15.67 -9 15.34 -9 15 C-3.29 14.26 2.24 13.9 8 14 C8.79 12.25 8.79 12.25 9 10 C7.06 5.44 4.12 3.57 0 1 C0 0.67 0 0.34 0 0 Z " fill="#FEFEFE" transform="translate(796,558)"/>
<path d="M0 0 C7.53 2.68 12.91 5.52 17.05 12.57 C18.43 15.79 18.31 18.23 17.95 21.68 C17.62 21.68 17.29 21.68 16.95 21.68 C16.74 20.5 16.54 19.33 16.32 18.12 C15.07 13.21 12.83 9.92 8.95 6.68 C4.57 4.14 -0.01 2.33 -5.05 1.68 C-2.05 -0.32 -2.05 -0.32 0 0 Z " fill="#E3E9F4" transform="translate(875.05078125,542.3203125)"/>
<path d="M0 0 C0.57 0.4 1.14 0.8 1.72 1.21 C7.07 4.89 7.07 4.89 13 7.44 C13.99 7.95 14.98 8.47 16 9 C16.94 12.69 16.94 12.69 17 16 C19.64 16.33 22.28 16.66 25 17 C25 17.33 25 17.66 25 18 C22.03 18.33 19.06 18.66 16 19 C15.53 17.62 15.05 16.24 14.56 14.81 C12.43 9.94 9.87 8.23 5.12 6.07 C2.92 4.96 1.56 3.9 0 2 C0 1.34 0 0.68 0 0 Z " fill="#F1F5FC" transform="translate(273,448)"/>
<path d="M0 0 C0.33 0 0.66 0 1 0 C1.33 5.61 1.66 11.22 2 17 C9.26 17 16.52 17 24 17 C24 17.66 24 18.32 24 19 C16.08 19 8.16 19 0 19 C0 12.73 0 6.46 0 0 Z " fill="#EBF0F7" transform="translate(558,464)"/>
<path d="M0 0 C2.07 2.69 3.94 5.44 5.75 8.31 C8.69 12.77 12.08 16.4 16 20 C11.98 20 10.93 18.7 8 16 C5.76 13.12 5.76 13.12 3.69 10 C2.64 8.45 2.64 8.45 1.57 6.88 C0 4 0 4 0 0 Z " fill="#E5EBF5" transform="translate(453,590)"/>
<path d="M0 0 C5.61 0.33 11.22 0.66 17 1 C17 1.66 17 2.32 17 3 C11.06 3 5.12 3 -1 3 C-0.67 2.01 -0.34 1.02 0 0 Z " fill="#F5F7FB" transform="translate(602,542)"/>
<path d="M0 0 C1.2 0.06 2.4 0.12 3.63 0.17 C4.93 0.23 6.23 0.28 7.57 0.34 C8.94 0.41 10.31 0.49 11.68 0.56 C13.07 0.62 14.45 0.69 15.84 0.75 C19.22 0.9 22.61 1.07 26 1.25 C26 1.58 26 1.91 26 2.25 C10.16 2.74 10.16 2.74 -6 3.25 C-3 0.25 -3 0.25 0 0 Z " fill="#DCE4F1" transform="translate(781.002685546875,572.751220703125)"/>
<path d="M0 0 C3.66 1.22 3.94 2.05 5.69 5.38 C8.39 10.98 8.52 15.88 8 22 C7.67 22 7.34 22 7 22 C6.89 21.2 6.78 20.41 6.67 19.59 C5.81 13.87 5.02 9.03 2 4 C1.33 2.67 0.67 1.33 0 0 Z " fill="#F2F5FA" transform="translate(678,563)"/>
<path d="M0 0 C0.33 0 0.66 0 1 0 C1.34 1.61 1.34 1.61 1.69 3.25 C3.21 7.59 4.03 8.77 8 11 C11.31 11.89 14.62 12.5 18 13 C18 13.33 18 13.66 18 14 C11.85 14.44 7.03 13.83 2 10 C-0.14 6.6 -0.18 3.98 0 0 Z " fill="#E9EEF7" transform="translate(778,592)"/>
<path d="M0 0 C2.47 2.47 2.91 4.72 4 8 C4.66 8.66 5.32 9.32 6 10 C4.35 9.67 2.7 9.34 1 9 C0.34 6.69 -0.32 4.38 -1 2 C-4.3 2 -7.6 2 -11 2 C-11 1.34 -11 0.68 -11 0 C-3.28 -1.34 -3.28 -1.34 0 0 Z " fill="#F5F7FD" transform="translate(300,383)"/>
<path d="M0 0 C0.66 0.33 1.32 0.66 2 1 C-1 7.53 -4.85 10.41 -11 14 C-11.33 13.34 -11.66 12.68 -12 12 C-6.38 8.12 -6.38 8.12 -3 7 C-1.83 4.58 -1.83 4.58 -1 2 C-0.67 1.34 -0.34 0.68 0 0 Z " fill="#EDF1F8" transform="translate(383,463)"/>
<path d="M0 0 C5.76 0.25 9.9 0.53 14 5 C15.31 7.75 15.31 7.75 16 10 C15.01 9.67 14.02 9.34 13 9 C12.73 8.38 12.46 7.76 12.19 7.12 C10.45 4.01 8.24 3.33 5 2 C2.26 1.3 2.26 1.3 0 1 C0 0.67 0 0.34 0 0 Z " fill="#EFF2F8" transform="translate(265,567)"/>
<path d="M0 0 C0.33 0 0.66 0 1 0 C1.33 1.65 1.66 3.3 2 5 C3.98 4.34 5.96 3.68 8 3 C7.05 4.34 6.09 5.67 5.12 7 C4.59 7.74 4.06 8.49 3.51 9.25 C3.01 9.83 2.51 10.4 2 11 C1.34 11 0.68 11 0 11 C0 7.37 0 3.74 0 0 Z " fill="#E3E8F4" transform="translate(523,397)"/>
<path d="M0 0 C0.33 0 0.66 0 1 0 C1 3.63 1 7.26 1 11 C0.34 10.34 -0.32 9.68 -1 9 C-2.32 8.3 -3.65 7.63 -5 7 C-4.36 6.22 -3.72 5.43 -3.06 4.62 C-1.02 2.2 -1.02 2.2 0 0 Z " fill="#F6F8FB" transform="translate(806,607)"/>
<path d="M0 0 C6.26 0.54 11.36 1.36 16 6 C15.67 6.99 15.34 7.98 15 9 C14.07 7.86 14.07 7.86 13.12 6.69 C9.53 3.02 4.86 2.16 0 1 C0 0.67 0 0.34 0 0 Z " fill="#E5ECF9" transform="translate(289,429)"/>
<path d="M0 0 C3.8 0.26 5.54 0.55 8.31 3.25 C9.97 5.95 10.64 7.88 11 11 C9 10 9 10 7.75 7.69 C5.64 4.45 3.25 3.02 0 1 C0 0.67 0 0.34 0 0 Z " fill="#F4F6FA" transform="translate(796,558)"/>
<path d="M0 0 C0 0.33 0 0.66 0 1 C-0.59 1.12 -1.18 1.24 -1.79 1.37 C-6.04 2.27 -10.02 3.2 -14 5 C-13.38 3.12 -13.38 3.12 -12 1 C-7.65 -1.08 -4.65 -1.11 0 0 Z " fill="#E1E8F4" transform="translate(859,543)"/>
<path d="M0 0 C0.33 0 0.66 0 1 0 C1.33 1.65 1.66 3.3 2 5 C4.64 5.33 7.28 5.66 10 6 C10 6.33 10 6.66 10 7 C5.55 7.5 5.55 7.5 1 8 C0.34 5.69 -0.32 3.38 -1 1 C-0.67 0.67 -0.34 0.34 0 0 Z " fill="#E2EAFA" transform="translate(288,459)"/>
<path d="M0 0 C0.33 0 0.66 0 1 0 C1 2.31 1 4.62 1 7 C-1.97 8.32 -4.94 9.64 -8 11 C-7.67 10.01 -7.34 9.02 -7 8 C-6.01 7.55 -5.02 7.09 -4 6.62 C-0.76 5.32 -0.76 5.32 -0.12 2.31 C-0.08 1.55 -0.04 0.79 0 0 Z " fill="#F9FBFE" transform="translate(288,385)"/>
<path d="M0 0 C0.33 0 0.66 0 1 0 C1 3.63 1 7.26 1 11 C0.34 9.68 -0.32 8.36 -1 7 C-1.66 6.67 -2.32 6.34 -3 6 C-2 4 -1 2 0 0 Z " fill="#F7F9FC" transform="translate(600,607)"/>
<path d="M0 0 C0.66 0.33 1.32 0.66 2 1 C1.34 2.65 0.68 4.3 0 6 C-1.65 5.67 -3.3 5.34 -5 5 C-4.36 4.73 -3.72 4.46 -3.06 4.19 C-0.67 3.11 -0.67 3.11 0 0 Z " fill="#193A85" transform="translate(804,600)"/>
<path d="M0 0 C0.75 1.69 0.75 1.69 1 4 C-0.94 6.75 -0.94 6.75 -3 9 C-3.99 8.67 -4.98 8.34 -6 8 C-4.73 6.5 -3.46 5.01 -2.19 3.51 C-0.91 1.99 -0.91 1.99 0 0 Z " fill="#EDF0F8" transform="translate(280,535)"/>
<path d="M0 0 C0.66 0.33 1.32 0.66 2 1 C-0.31 3.64 -2.62 6.28 -5 9 C-5 4.61 -2.87 3.23 0 0 Z " fill="#0B2573" transform="translate(192,362)"/>
<path d="M0 0 C0.66 0.66 1.32 1.32 2 2 C-0.31 3.65 -2.62 5.3 -5 7 C-5.66 6.67 -6.32 6.34 -7 6 C-4.69 4.02 -2.38 2.04 0 0 Z " fill="#EAEFF7" transform="translate(646,546)"/>
</svg>
